HIERARCHY
ROOT hip
{
  OFFSET 13.2213 79.7684 -42.1671
  CHANNELS 6 Xposition Yposition Zposition Zrotation Xrotation Yrotation
  JOINT abdomen
  {
    OFFSET 0 20.6881 -0.73152
    CHANNELS 3 Zrotation Xrotation Yrotation
    JOINT chest
    {
      OFFSET 0 11.7043 -0.48768
      CHANNELS 3 Zrotation Xrotation Yrotation
      JOINT neck
      {
        OFFSET 0 22.1894 -2.19456
        CHANNELS 3 Zrotation Xrotation Yrotation
        JOINT head
        {
          OFFSET -0.24384 7.07133 1.2192
          CHANNELS 3 Zrotation Xrotation Yrotation
          JOINT leftEye
          {
            OFFSET 4.14528 8.04674 8.04672
            CHANNELS 3 Zrotation Xrotation Yrotation
            End Site
            {
              OFFSET 1 0 0
            }
          }
          JOINT rightEye
          {
            OFFSET -3.6576 8.04674 8.04672
            CHANNELS 3 Zrotation Xrotation Yrotation
            End Site
            {
              OFFSET 1 0 0
            }
          }
        }
      }
      JOINT rCollar
      {
        OFFSET -2.68224 19.2634 -4.8768
        CHANNELS 3 Zrotation Xrotation Yrotation
        JOINT rShldr
        {
          OFFSET -8.77824 -1.95073 1.46304
          CHANNELS 3 Zrotation Xrotation Yrotation
          JOINT rForeArm
          {
            OFFSET -28.1742 -1.7115 0.48768
            CHANNELS 3 Zrotation Xrotation Yrotation
            JOINT rHand
            {
              OFFSET -22.5879 0.773209 7.07136
              CHANNELS 3 Zrotation Xrotation Yrotation
              JOINT rThumb1
              {
                OFFSET -1.2192 -0.487915 3.41376
                CHANNELS 3 Zrotation Xrotation Yrotation
                JOINT rThumb2
                {
                  OFFSET -3.37035 -0.52449 3.41376
                  CHANNELS 3 Zrotation Xrotation Yrotation
                  End Site
                  {
                    OFFSET -1.78271 -1.18214 1.43049
                  }
                }
              }
              JOINT rIndex1
              {
                OFFSET -7.75947 0.938293 5.60832
                CHANNELS 3 Zrotation Xrotation Yrotation
                JOINT rIndex2
                {
                  OFFSET -2.54057 -0.884171 1.56538
                  CHANNELS 3 Zrotation Xrotation Yrotation
                  End Site
                  {
                    OFFSET -1.62519 -0.234802 1.16502
                  }
                }
              }
              JOINT rMid1
              {
                OFFSET -8.24714 1.18213 3.41376
                CHANNELS 3 Zrotation Xrotation Yrotation
                JOINT rMid2
                {
                  OFFSET -3.10165 -0.590103 1.0647
                  CHANNELS 3 Zrotation Xrotation Yrotation
                  End Site
                  {
                    OFFSET -2.48547 -0.328903 0.83742
                  }
                }
              }
              JOINT rRing1
              {
                OFFSET -8.82822 0.546677 1.51678
                CHANNELS 3 Zrotation Xrotation Yrotation
                JOINT rRing2
                {
                  OFFSET -2.60934 -0.819778 -0.0198488
                  CHANNELS 3 Zrotation Xrotation Yrotation
                  End Site
                  {
                    OFFSET -2.33842 -0.294052 0.168128
                  }
                }
              }
              JOINT rPinky1
              {
                OFFSET -8.27202 -0.0477905 -0.4584
                CHANNELS 3 Zrotation Xrotation Yrotation
                JOINT rPinky2
                {
                  OFFSET -1.82734 -0.647385 -0.700984
                  CHANNELS 3 Zrotation Xrotation Yrotation
                  End Site
                  {
                    OFFSET -1.69225 -0.51767 -0.607171
                  }
                }
              }
            }
          }
        }
      }
      JOINT lCollar
      {
        OFFSET 2.68224 19.2634 -4.8768
        CHANNELS 3 Zrotation Xrotation Yrotation
        JOINT lShldr
        {
          OFFSET 8.77824 -1.95073 1.46304
          CHANNELS 3 Zrotation Xrotation Yrotation
          JOINT lForeArm
          {
            OFFSET 28.1742 -1.7115 0.48768
            CHANNELS 3 Zrotation Xrotation Yrotation
            JOINT lHand
            {
              OFFSET 22.5879 0.773209 7.07136
              CHANNELS 3 Zrotation Xrotation Yrotation
              JOINT lThumb1
              {
                OFFSET 1.2192 -0.487915 3.41376
                CHANNELS 3 Zrotation Xrotation Yrotation
                JOINT lThumb2
                {
                  OFFSET 3.37035 -0.52449 3.41376
                  CHANNELS 3 Zrotation Xrotation Yrotation
                  End Site
                  {
                    OFFSET 1.78271 -1.18214 1.43049
                  }
                }
              }
              JOINT lIndex1
              {
                OFFSET 7.75947 0.938293 5.60832
                CHANNELS 3 Zrotation Xrotation Yrotation
                JOINT lIndex2
                {
                  OFFSET 2.54057 -0.884171 1.56538
                  CHANNELS 3 Zrotation Xrotation Yrotation
                  End Site
                  {
                    OFFSET 1.62519 -0.234802 1.16502
                  }
                }
              }
              JOINT lMid1
              {
                OFFSET 8.24714 1.18213 3.41376
                CHANNELS 3 Zrotation Xrotation Yrotation
                JOINT lMid2
                {
                  OFFSET 3.10165 -0.590103 1.0647
                  CHANNELS 3 Zrotation Xrotation Yrotation
                  End Site
                  {
                    OFFSET 2.48547 -0.328903 0.83742
                  }
                }
              }
              JOINT lRing1
              {
                OFFSET 8.82822 0.546677 1.51678
                CHANNELS 3 Zrotation Xrotation Yrotation
                JOINT lRing2
                {
                  OFFSET 2.60934 -0.819778 -0.0198488
                  CHANNELS 3 Zrotation Xrotation Yrotation
                  End Site
                  {
                    OFFSET 2.33842 -0.294052 0.168128
                  }
                }
              }
              JOINT lPinky1
              {
                OFFSET 8.27202 -0.0477905 -0.4584
                CHANNELS 3 Zrotation Xrotation Yrotation
                JOINT lPinky2
                {
                  OFFSET 1.82734 -0.647385 -0.700984
                  CHANNELS 3 Zrotation Xrotation Yrotation
                  End Site
                  {
                    OFFSET 1.69225 -0.51767 -0.607171
                  }
                }
              }
            }
          }
        }
      }
    }
  }
  JOINT rButtock
  {
    OFFSET -8.77824 4.35084 1.2192
    CHANNELS 3 Zrotation Xrotation Yrotation
    JOINT rThigh
    {
      OFFSET 0 -1.70687 -2.19456
      CHANNELS 3 Zrotation Xrotation Yrotation
      JOINT rShin
      {
        OFFSET 0 -36.8199 0.73152
        CHANNELS 3 Zrotation Xrotation Yrotation
        JOINT rFoot
        {
          OFFSET 0.73152 -45.1104 -5.12064
          CHANNELS 3 Zrotation Xrotation Yrotation
          End Site
          {
            OFFSET -1.1221 -3.69964 12.103
          }
        }
      }
    }
  }
  JOINT lButtock
  {
    OFFSET 8.77824 4.35084 1.2192
    CHANNELS 3 Zrotation Xrotation Yrotation
    JOINT lThigh
    {
      OFFSET 0 -1.70687 -2.19456
      CHANNELS 3 Zrotation Xrotation Yrotation
      JOINT lShin
      {
        OFFSET 0 -36.8199 0.73152
        CHANNELS 3 Zrotation Xrotation Yrotation
        JOINT lFoot
        {
          OFFSET -0.73152 -45.1104 -5.12064
          CHANNELS 3 Zrotation Xrotation Yrotation
          End Site
          {
            OFFSET 1.1221 -3.69964 12.103
          }
        }
      }
    }
  }
}
MOTION
Frames:	4
Frame Time:	0.00833333
21.3093 83.5797 43.0014 -3.32447 0.0248888 -167.836 12.0476 4.41307 1.12417 4.86292 -1.00025 0.849237 -9.31238 -3.67508 -2.32919 5.57405 -8.18834 -0.92952 -0 0 0 -0 0 0 -3.16206e-014 -9.31824e-014 -1.72203e-013 32.3636 9.31909 57.6588 -14.4943 -7.36027 26.5542 -0.00366344 -1.72709 -0.242802 1.18079e-009 -2.76752e-009 6.1702e-010 2.04037e-009 -4.78483e-009 1.06567e-009 1.1808e-009 -2.76751e-009 6.17005e-010 7.73091 5.47488 0.417314 1.18079e-009 -2.76752e-009 6.17017e-010 2.90554 0.965183 0.102902 1.1808e-009 -2.76751e-009 6.1702e-010 10.2786 0.731801 0.0259123 1.18079e-009 -2.76752e-009 6.17034e-010 2.22167 -0.733487 -0.20892 -3.15872e-014 -9.32034e-014 -1.72402e-013 -22.8146 -13.0439 -52.2725 15.4066 -8.14745 -28.4298 0.33179 16.17 -2.3355 -3.41432e-010 -8.79078e-010 -2.46508e-012 -5.92442e-010 -1.53969e-009 5.62647e-013 -3.41435e-010 -8.79089e-010 -2.45323e-012 -7.73091 5.47488 -0.417314 -3.4143e-010 -8.7909e-010 -2.46099e-012 -2.90554 0.965183 -0.102902 -3.41439e-010 -8.79078e-010 -2.46644e-012 -10.2786 0.731801 -0.0259123 -3.41424e-010 -8.79074e-010 -2.4763e-012 -2.22167 -0.733487 0.20892 -2.03217e-016 0 -3.88251e-019 3.28147 -3.33959 4.03697 -7.25071e-005 25.0619 0.737148 -1.27198 -15.4178 -3.24742 2.03217e-016 0 3.88251e-019 16.4361 -31.9339 7.33643 0.214829 32.5253 -0.61545 -0.631398 -10.8268 -3.41079 
21.2396 83.5615 42.3084 -3.36812 -0.0409957 -167.307 12.0813 4.39006 1.00577 4.89315 -1.02161 0.815798 -9.3966 -3.30329 -2.18904 5.62016 -8.60357 -0.654412 -0 0 0 -0 0 0 -5.14832e-014 -8.57657e-014 -1.17581e-013 32.3092 9.7731 57.6567 -14.5184 -7.3804 26.6029 -0.00367665 -1.73108 -0.243363 6.64801e-010 -1.31842e-009 4.29798e-010 1.14916e-009 -2.28654e-009 7.41221e-010 6.64808e-010 -1.31841e-009 4.29785e-010 7.73091 5.47488 0.417314 6.64799e-010 -1.31842e-009 4.29795e-010 2.90554 0.965183 0.102902 6.64805e-010 -1.31842e-009 4.29798e-010 10.2786 0.731801 0.0259123 6.64803e-010 -1.31842e-009 4.29814e-010 2.22167 -0.733487 -0.20892 -5.14409e-014 -8.57849e-014 -1.1778e-013 -22.8445 -12.888 -51.9915 15.4171 -8.15673 -28.4515 0.32905 16.1048 -2.32557 -3.85362e-010 -7.15454e-010 -7.97683e-011 -6.68924e-010 -1.25996e-009 -1.32462e-010 -3.85365e-010 -7.15465e-010 -7.97588e-011 -7.73091 5.47488 -0.417314 -3.8536e-010 -7.15466e-010 -7.97619e-011 -2.90554 0.965183 -0.102902 -3.85369e-010 -7.15454e-010 -7.97683e-011 -10.2786 0.731801 -0.0259123 -3.85354e-010 -7.15449e-010 -7.97779e-011 -2.22167 -0.733487 0.20892 -2.03217e-016 0 -3.88251e-019 3.1619 -2.69081 4.29466 0.00527867 24.5583 0.733243 -1.23682 -15.5678 -3.13201 2.03217e-016 0 3.88251e-019 16.6415 -32.0585 7.2899 0.201982 31.6083 -0.604662 -0.444916 -10.7027 -2.76895 
21.1525 83.4667 41.6088 -3.38375 -0.124833 -166.765 12.0422 4.3816 1.02229 4.88195 -0.987885 0.814184 -9.31629 -3.22826 -2.09477 5.51676 -8.79718 -0.506964 -0 0 0 -0 0 0 -5.64493e-014 -5.9071e-014 -2.11174e-014 32.3004 10.0838 57.5591 -14.5631 -7.41805 26.6938 -0.00395221 -1.79402 -0.252217 -4.48921e-011 2.26403e-010 2.90919e-011 -7.67793e-011 3.77508e-010 4.77599e-011 -4.48865e-011 2.26412e-010 2.90844e-011 7.73091 5.47488 0.417314 -4.4894e-011 2.26404e-010 2.90902e-011 2.90554 0.965183 0.102902 -4.4889e-011 2.26405e-010 2.90934e-011 10.2786 0.731801 0.0259123 -4.4891e-011 2.26403e-010 2.91088e-011 2.22167 -0.733487 -0.20892 -5.64232e-014 -5.9084e-014 -2.12894e-014 -22.9474 -12.8268 -51.9571 15.3913 -8.1339 -28.3978 0.331377 16.1603 -2.33403 -3.96487e-010 -2.89106e-010 -1.65699e-010 -6.88064e-010 -5.25097e-010 -2.80626e-010 -3.96489e-010 -2.89113e-010 -1.65691e-010 -7.73091 5.47488 -0.417314 -3.96485e-010 -2.89115e-010 -1.65693e-010 -2.90554 0.965183 -0.102902 -3.96494e-010 -2.89105e-010 -1.65699e-010 -10.2786 0.731801 -0.0259123 -3.96479e-010 -2.89101e-010 -1.65706e-010 -2.22167 -0.733487 0.20892 -2.03217e-016 0 -3.88251e-019 3.01023 -2.09303 4.53042 0.00968396 24.0838 0.729255 -1.20654 -15.7748 -3.02466 2.03217e-016 0 3.88251e-019 16.8749 -32.1813 7.42689 0.190513 30.7532 -0.595514 -0.229555 -10.5628 -2.01594 
21.1866 83.3567 40.9501 -3.38298 -0.220129 -166.221 11.9599 4.37502 1.11344 4.84583 -0.921264 0.829723 -9.13515 -3.31057 -2.02478 5.31594 -8.88159 -0.432768 -0 0 0 -0 0 0 -5.17549e-014 -1.77819e-014 1.09179e-013 32.3115 10.3209 57.4014 -14.6235 -7.46893 26.8168 -0.0044493 -1.89745 -0.266769 -9.40342e-010 2.00736e-009 -5.32693e-010 -1.62368e-009 3.44948e-009 -9.24175e-010 -9.40338e-010 2.00737e-009 -5.32694e-010 7.73091 5.47488 0.417314 -9.40343e-010 2.00736e-009 -5.32693e-010 2.90554 0.965183 0.102902 -9.4034e-010 2.00736e-009 -5.32689e-010 10.2786 0.731801 0.0259123 -9.40343e-010 2.00736e-009 -5.32676e-010 2.22167 -0.733487 -0.20892 -5.17625e-014 -1.7785e-014 1.09052e-013 -23.096 -12.8205 -52.0596 15.3425 -8.09053 -28.2961 0.336653 16.2847 -2.353 -3.81031e-010 3.31041e-010 -2.60965e-010 -6.60826e-010 5.45667e-010 -4.4515e-010 -3.81033e-010 3.31042e-010 -2.60958e-010 -7.73091 5.47488 -0.417314 -3.81029e-010 3.31036e-010 -2.60961e-010 -2.90554 0.965183 -0.102902 -3.81039e-010 3.31042e-010 -2.60964e-010 -10.2786 0.731801 -0.0259123 -3.81025e-010 3.31044e-010 -2.60969e-010 -2.22167 -0.733487 0.20892 -2.03217e-016 0 -3.88251e-019 2.83476 -1.53064 4.73559 0.0131967 23.6347 0.724943 -1.17578 -16.0255 -2.91172 2.03217e-016 0 3.88251e-019 17.1337 -32.2942 7.69648 0.180105 29.9455 -0.587676 0.00972242 -10.4051 -1.16415 
